<svg width="232" height="307" viewBox="0 0 232 307" fill="none" xmlns="http://www.w3.org/2000/svg">
<path d="M30.1074 90.979L60.1482 108.18L60.1482 172.99L30.3602 190.023L30.1074 90.979Z" fill="url(#paint0_linear_2012_1626)"/>
<path d="M201.876 90.6738L171.859 108.205L171.859 173.002L201.75 189.713L201.876 90.6738Z" fill="url(#paint1_linear_2012_1626)"/>
<path d="M201.773 189.721L171.855 172.998L116.002 205.236L116.002 239.847L201.773 189.721Z" fill="url(#paint2_linear_2012_1626)"/>
<path d="M115.997 239.846L116.121 205.256L60.1365 172.994L30.3591 189.975L115.997 239.846Z" fill="url(#paint3_linear_2012_1626)"/>
<path d="M231.663 73.6372L201.639 90.9713L115.867 41.4509L116.006 6.86271L231.663 73.6372Z" fill="#4277FF"/>
<path d="M0.337158 207.149L30.363 189.963L115.994 239.268L115.994 273.861L0.337158 207.149Z" fill="#467AFF"/>
<path d="M231.663 207.125L201.639 189.791L201.639 90.75L231.663 73.576L231.663 207.125Z" fill="#6893FF"/>
<path d="M0.337158 73.6006L30.3608 90.9347L30.3608 189.976L0.337167 207.15L0.337158 73.6006Z" fill="#6893FF"/>
<path d="M116.006 273.899L116.006 239.231L201.644 189.787L231.663 207.125L116.006 273.899Z" fill="#5787FF"/>
<path d="M115.994 6.86279L115.994 41.5311L30.222 91.0515L0.337092 73.6373L115.994 6.86279Z" fill="#4277FF"/>
<path d="M116 205.25L60.1414 173L60.1414 32.25L116 -4.88332e-06L171.859 32.25L171.859 173L116 205.25Z" fill="url(#paint4_linear_2012_1626)"/>
<path d="M74.3476 141.83H80.7276C80.6889 141.037 80.3989 140.37 79.8576 139.829C79.3356 139.288 78.5623 139.017 77.5376 139.017C76.6096 139.017 75.8556 139.307 75.2756 139.887C74.6956 140.467 74.3863 141.115 74.3476 141.83ZM81.1046 145.542L84.3236 146.499C83.9369 147.814 83.1733 148.896 82.0326 149.747C80.9113 150.598 79.5096 151.023 77.8276 151.023C75.7783 151.023 74.0383 150.337 72.6076 148.964C71.1769 147.572 70.4616 145.716 70.4616 143.396C70.4616 141.192 71.1576 139.394 72.5496 138.002C73.9416 136.591 75.5849 135.885 77.4796 135.885C79.6836 135.885 81.4043 136.542 82.6416 137.857C83.8983 139.172 84.5266 140.979 84.5266 143.28C84.5266 143.435 84.5169 143.609 84.4976 143.802C84.4976 143.995 84.4976 144.15 84.4976 144.266L84.4686 144.469H74.2606C74.2993 145.397 74.6666 146.17 75.3626 146.789C76.0586 147.408 76.8899 147.717 77.8566 147.717C79.4999 147.717 80.5826 146.992 81.1046 145.542ZM97.1629 151.023C94.2049 151.023 91.7109 150.037 89.6809 148.065C87.6509 146.093 86.6359 143.512 86.6359 140.322C86.6359 137.151 87.6606 134.57 89.7099 132.579C91.7786 130.588 94.2436 129.592 97.1049 129.592C99.7342 129.592 101.842 130.259 103.427 131.593C105.032 132.927 106.066 134.532 106.53 136.407L102.76 137.596C102.47 136.436 101.861 135.46 100.933 134.667C100.005 133.855 98.7289 133.449 97.1049 133.449C95.4229 133.449 93.9439 134.048 92.6679 135.247C91.4112 136.446 90.7829 138.137 90.7829 140.322C90.7829 142.41 91.4016 144.063 92.6389 145.281C93.8956 146.499 95.4036 147.108 97.1629 147.108C98.7676 147.108 100.044 146.692 100.991 145.861C101.958 145.03 102.605 144.044 102.934 142.903L106.675 144.034C106.462 144.865 106.114 145.677 105.631 146.47C105.167 147.263 104.558 148.007 103.804 148.703C103.05 149.399 102.093 149.96 100.933 150.385C99.7922 150.81 98.5356 151.023 97.1629 151.023ZM114.002 146.876H117.192C118.99 146.876 120.469 146.315 121.629 145.194C122.789 144.073 123.369 142.449 123.369 140.322C123.369 138.195 122.789 136.571 121.629 135.45C120.469 134.309 119 133.739 117.221 133.739H114.002V146.876ZM117.337 150.588H110V130.027H117.366C120.363 130.027 122.799 130.945 124.674 132.782C126.569 134.619 127.516 137.132 127.516 140.322C127.516 143.493 126.569 145.996 124.674 147.833C122.78 149.67 120.334 150.588 117.337 150.588ZM135.017 150.588H130.986V130.027H143.978V133.826H134.988V138.901H142.992V142.584H135.017V150.588ZM151.301 139.394H154.462C155.448 139.394 156.231 139.133 156.811 138.611C157.391 138.07 157.681 137.354 157.681 136.465C157.681 135.556 157.391 134.841 156.811 134.319C156.25 133.778 155.467 133.507 154.462 133.507H151.301V139.394ZM154.955 142.845H151.272V150.588H147.27V130.027H154.955C156.966 130.027 158.59 130.626 159.827 131.825C161.084 133.024 161.712 134.561 161.712 136.436C161.712 138.311 161.084 139.848 159.827 141.047C158.59 142.246 156.966 142.845 154.955 142.845Z" fill="white"/>
<path d="M116 273.861L167.359 303.513C169.359 304.668 171.859 303.225 171.859 300.915V241.736L116 273.861L60.1414 241.736L60.1414 300.915C60.1414 303.225 62.6414 304.668 64.6414 303.513L116 273.861Z" fill="url(#paint5_linear_2012_1626)"/>
<path fill-rule="evenodd" clip-rule="evenodd" d="M114.972 44.5811C115.358 44.3943 115.808 44.3949 116.193 44.5825L121.349 47.096C125.355 49.0483 129.751 50.0817 134.213 50.1195L137.858 50.1503C138.624 50.1568 139.242 50.7798 139.242 51.5461V74.2598C139.242 87.7644 129.994 99.5271 116.824 102.8L115.919 103.025C115.698 103.08 115.468 103.08 115.247 103.026L114.241 102.777C101.052 99.5186 91.7834 87.7467 91.7834 74.2269V51.4581C91.7834 50.6872 92.4084 50.0622 93.1793 50.0622H96.7848C101.309 50.0622 105.774 49.0381 109.84 47.068L114.972 44.5811ZM115.579 47.3892L111.057 49.5802C106.611 51.7345 101.73 52.8539 96.7848 52.8539H94.5751V74.2269C94.5751 86.4518 102.957 97.1137 114.91 100.067L115.581 100.233L116.151 100.091C128.087 97.1245 136.45 86.471 136.45 74.2598V52.9302L134.189 52.911C129.312 52.8697 124.506 51.7402 120.126 49.6054L115.579 47.3892Z" fill="url(#paint6_linear_2012_1626)"/>
<path fill-rule="evenodd" clip-rule="evenodd" d="M118.148 61.0557C118.789 61.4834 118.963 62.35 118.535 62.9914L112.537 71.988H121.096C121.611 71.988 122.084 72.2713 122.327 72.7252C122.57 73.1791 122.543 73.7298 122.257 74.1581L114.813 85.3248C114.385 85.9662 113.519 86.1395 112.877 85.7119C112.236 85.2843 112.062 84.4176 112.49 83.7762L118.488 74.7797H109.929C109.415 74.7797 108.942 74.4963 108.699 74.0425C108.456 73.5886 108.482 73.0379 108.768 72.6096L116.212 61.4429C116.64 60.8015 117.507 60.6281 118.148 61.0557Z" fill="url(#paint7_linear_2012_1626)"/>
<defs>
<linearGradient id="paint0_linear_2012_1626" x1="30.8663" y1="123.301" x2="60.4625" y2="123.65" gradientUnits="userSpaceOnUse">
<stop stop-color="#EF7D22"/>
<stop offset="0.23" stop-color="#EF741D"/>
<stop offset="0.62" stop-color="#EE5A10"/>
<stop offset="1" stop-color="#EE3B00"/>
</linearGradient>
<linearGradient id="paint1_linear_2012_1626" x1="171.859" y1="137.361" x2="185.165" y2="161.603" gradientUnits="userSpaceOnUse">
<stop stop-color="#EF7D22"/>
<stop offset="0.23" stop-color="#EF741D"/>
<stop offset="0.62" stop-color="#EE5A10"/>
<stop offset="1" stop-color="#EE3B00"/>
</linearGradient>
<linearGradient id="paint2_linear_2012_1626" x1="114.562" y1="215.361" x2="144.104" y2="243.512" gradientUnits="userSpaceOnUse">
<stop stop-color="#EF7D22"/>
<stop offset="0.23" stop-color="#EF741D"/>
<stop offset="0.62" stop-color="#EE5A10"/>
<stop offset="1" stop-color="#EE3B00"/>
</linearGradient>
<linearGradient id="paint3_linear_2012_1626" x1="30.0707" y1="191.361" x2="41.7608" y2="228.477" gradientUnits="userSpaceOnUse">
<stop stop-color="#EF7D22"/>
<stop offset="0.23" stop-color="#EF741D"/>
<stop offset="0.62" stop-color="#EE5A10"/>
<stop offset="1" stop-color="#EE3B00"/>
</linearGradient>
<linearGradient id="paint4_linear_2012_1626" x1="116" y1="297.802" x2="116" y2="0.000540351" gradientUnits="userSpaceOnUse">
<stop stop-color="#6819CB"/>
<stop offset="0.875726" stop-color="#6863EB"/>
<stop offset="0.994792" stop-color="#6893FF"/>
</linearGradient>
<linearGradient id="paint5_linear_2012_1626" x1="116.307" y1="241.711" x2="115.975" y2="306.287" gradientUnits="userSpaceOnUse">
<stop offset="0.322806" stop-color="#6852E3"/>
<stop offset="1" stop-color="#6893FF"/>
</linearGradient>
<linearGradient id="paint6_linear_2012_1626" x1="93.406" y1="32.9258" x2="150.005" y2="36.3658" gradientUnits="userSpaceOnUse">
<stop offset="0.182684" stop-color="#88A9FF"/>
<stop offset="1" stop-color="#B9CDFF"/>
</linearGradient>
<linearGradient id="paint7_linear_2012_1626" x1="93.406" y1="32.9258" x2="150.005" y2="36.3658" gradientUnits="userSpaceOnUse">
<stop offset="0.182684" stop-color="#88A9FF"/>
<stop offset="1" stop-color="#B9CDFF"/>
</linearGradient>
</defs>
</svg>
